<svg xmlns="http://www.w3.org/2000/svg" viewBox="0 0 533.333 533.333"><path d="M189.438 376.068l21.51-30.112-23.57-23.57-30.113 21.509a82.848 82.848 0 0 0-17.847-7.394L133.333 300H100l-6.083 36.503a82.893 82.893 0 0 0-17.847 7.392l-30.113-21.509-23.57 23.57 21.509 30.112a82.788 82.788 0 0 0-7.392 17.848L0 400v33.333l36.503 6.085a82.813 82.813 0 0 0 7.392 17.846l-21.509 30.113 23.569 23.57 30.113-21.506a82.94 82.94 0 0 0 17.847 7.391L100 533.333h33.333l6.083-36.503a82.842 82.842 0 0 0 17.847-7.392l30.113 21.507 23.569-23.57-21.509-30.113a82.75 82.75 0 0 0 7.392-17.846l36.504-6.083V400l-36.503-6.084a82.818 82.818 0 0 0-7.391-17.848zM116.667 450c-18.41 0-33.333-14.924-33.333-33.333s14.923-33.334 33.333-33.334S150 398.258 150 416.667 135.077 450 116.667 450zm416.666-250v-33.333l-35.096-6.38a150.201 150.201 0 0 0-2.458-12.391l29.976-19.323L513 97.777l-34.868 7.535a149.386 149.386 0 0 0-7.027-10.484l20.315-29.345-23.571-23.57-29.343 20.316a150.553 150.553 0 0 0-10.483-7.028l7.534-34.867-30.796-12.757-19.322 29.978c-4.069-.985-8.2-1.813-12.393-2.46L366.667 0h-33.333l-6.382 35.095c-4.19.647-8.321 1.475-12.391 2.46L295.239 7.577l-30.795 12.756 7.535 34.867a149.28 149.28 0 0 0-10.484 7.028L232.15 41.912l-23.569 23.57 20.316 29.345a149.633 149.633 0 0 0-7.028 10.484l-34.867-7.535-12.756 30.796 29.979 19.323a149.22 149.22 0 0 0-2.461 12.391l-35.096 6.381V200l35.095 6.38c.647 4.19 1.475 8.322 2.461 12.391l-29.979 19.323L187 268.89l34.867-7.536a149.984 149.984 0 0 0 7.028 10.484l-20.316 29.345 23.57 23.571 29.345-20.315a149.991 149.991 0 0 0 10.485 7.027l-7.536 34.866 30.796 12.756 19.324-29.979c4.065.987 8.197 1.815 12.389 2.462l6.382 35.096h33.333l6.381-35.096c4.19-.646 8.321-1.475 12.393-2.459l19.322 29.978 30.795-12.756-7.534-34.867a149.482 149.482 0 0 0 10.483-7.027l29.344 20.316 23.571-23.572-20.315-29.344a149.875 149.875 0 0 0 7.027-10.485L513 268.891l12.755-30.797-29.976-19.323a150.119 150.119 0 0 0 2.458-12.391l35.096-6.38zM350 255.833c-40.041 0-72.499-32.459-72.499-72.5s32.458-72.5 72.499-72.5c40.042 0 72.5 32.46 72.5 72.5s-32.458 72.5-72.5 72.5z" fill="#23b7a4"/></svg>