<svg xmlns="http://www.w3.org/2000/svg" viewBox="0 0 533.333 533.333">
	<path d="M189.438,376.068l21.51-30.112l-23.57-23.57l-30.113,21.509c-5.585-3.123-11.565-5.613-17.847-7.394L133.333,300H100l-6.083,36.503c-6.282,1.78-12.262,4.271-17.847,7.392l-30.113-21.509l-23.57,23.57l21.509,30.112c-3.122,5.582-5.612,11.566-7.392,17.848L0,400v33.333l36.503,6.085c1.78,6.281,4.27,12.263,7.392,17.846l-21.509,30.113l23.569,23.57l30.113-21.506c5.585,3.121,11.565,5.61,17.847,7.391L100,533.333h33.333l6.083-36.503c6.282-1.78,12.262-4.27,17.847-7.392l30.113,21.507l23.569-23.57l-21.509-30.113c3.122-5.581,5.612-11.564,7.392-17.846l36.504-6.083V400l-36.503-6.084C195.05,387.635,192.56,381.653,189.438,376.068z M116.667,450c-18.41,0-33.333-14.924-33.333-33.333s14.923-33.334,33.333-33.334S150,398.258,150,416.667S135.077,450,116.667,450z M533.333,200v-33.333l-35.096-6.38c-0.646-4.191-1.475-8.322-2.458-12.391l29.976-19.323L513,97.777l-34.868,7.535c-2.193-3.599-4.546-7.094-7.027-10.484l20.315-29.345l-23.571-23.57l-29.343,20.316c-3.392-2.482-6.884-4.832-10.483-7.028l7.534-34.867L404.761,7.577l-19.322,29.978c-4.069-0.985-8.2-1.813-12.393-2.46L366.667,0h-33.333l-6.382,35.095c-4.19,0.647-8.321,1.475-12.391,2.46L295.239,7.577l-30.795,12.756l7.535,34.867c-3.6,2.196-7.095,4.545-10.484,7.028l-29.345-20.316l-23.569,23.57l20.316,29.345c-2.483,3.391-4.833,6.885-7.028,10.484l-34.867-7.535l-12.756,30.796l29.979,19.323c-0.986,4.068-1.814,8.199-2.461,12.391l-35.096,6.381V200l35.095,6.38c0.647,4.19,1.475,8.322,2.461,12.391l-29.979,19.323L187,268.89l34.867-7.536c2.196,3.599,4.545,7.093,7.028,10.484l-20.316,29.345l23.57,23.571l29.345-20.315c3.391,2.483,6.886,4.831,10.485,7.027l-7.536,34.866l30.796,12.756l19.324-29.979c4.065,0.987,8.197,1.815,12.389,2.462l6.382,35.096h33.333l6.381-35.096c4.19-0.646,8.321-1.475,12.393-2.459l19.322,29.978l30.795-12.756l-7.534-34.867c3.599-2.195,7.094-4.545,10.483-7.027l29.344,20.316l23.571-23.572l-20.315-29.344c2.482-3.392,4.833-6.886,7.027-10.485L513,268.891l12.755-30.797l-29.976-19.323c0.983-4.069,1.812-8.199,2.458-12.391L533.333,200z M350,255.833c-40.041,0-72.499-32.459-72.499-72.5s32.458-72.5,72.499-72.5c40.042,0,72.5,32.46,72.5,72.5S390.042,255.833,350,255.833z" fill="#23b7a4"/>
</svg>
